# xmcd CD database file
#
# Track frame offsets:
#	150
#	8129
#	26584
#	43356
#	59575
#	74839
#	89745
#	110870
#	135972
#	160994
#	179874
#	199573
#	228436
#
# Disc length: 3221 seconds
#
# Revision: 0
# Processed by: cddbd v1.5.2PL0 Copyright (c) Steve Scherf et al.
# Submitted via: CDex 1.51
#
DISCID=c60c930d
DTITLE=Bob Warnaar Big Big Big Band - Legacy
DYEAR=2000
DGENRE=Jazz
TTITLE0=Introduction: I Must Have Been Blind - B. Warnaar
TTITLE1=Glenn Miller Medley
TTITLE2=Begin The Beguine - Porter
TTITLE3=Wave - Jobim
TTITLE4=Goody Goody - J. Mercer feat Ginny Dusseau
TTITLE5=Seems Like Old Times - C. Lombardo feat Ginny Dusseau
TTITLE6=Miller Medley
TTITLE7=Blues #5 - B. Warnaar
TTITLE8=Ellington Medley
TTITLE9=Bandstand On The Grand - B. Warnaar
TTITLE10=Bounce Your Boogie - B. Warnaar
TTITLE11=But Beautiful - J. Burke feat Ginney Dusseau
TTITLE12=Bandstand Boogie - C. Albertine
EXTD=YEAR: 2000
EXTT0=
EXTT1=
EXTT2=
EXTT3=
EXTT4=
EXTT5=
EXTT6=
EXTT7=
EXTT8=
EXTT9=
EXTT10=
EXTT11=
EXTT12=
PLAYORDER=
